<svg width="760" height="920" viewBox="0 0 760 920" fill="none" xmlns="http://www.w3.org/2000/svg">
  <defs>
    <linearGradient id="leafA" x1="0" y1="0" x2="1" y2="1">
      <stop offset="0" stop-color="#B8F17C"/>
      <stop offset="1" stop-color="#4EA34A"/>
    </linearGradient>
    <linearGradient id="leafB" x1="0" y1="0" x2="0" y2="1">
      <stop offset="0" stop-color="#9BE061"/>
      <stop offset="1" stop-color="#2F7D3D"/>
    </linearGradient>
    <radialGradient id="pot" cx="0" cy="0" r="1" gradientUnits="userSpaceOnUse" gradientTransform="translate(380 730) rotate(90) scale(210 210)">
      <stop offset="0" stop-color="#B26A45"/>
      <stop offset="1" stop-color="#7A4128"/>
    </radialGradient>
    <filter id="softShadow" x="40" y="90" width="680" height="760" filterUnits="userSpaceOnUse" color-interpolation-filters="sRGB">
      <feFlood flood-opacity="0" result="BackgroundImageFix"/>
      <feColorMatrix in="SourceAlpha" type="matrix" values="0 0 0 0 0 0 0 0 0 0 0 0 0 0 0 0 0 0 127 0" result="hardAlpha"/>
      <feOffset dy="22"/>
      <feGaussianBlur stdDeviation="18"/>
      <feComposite in2="hardAlpha" operator="out"/>
      <feColorMatrix type="matrix" values="0 0 0 0 0.04 0 0 0 0 0.20 0 0 0 0 0.11 0 0 0 0.38 0"/>
      <feBlend mode="normal" in2="BackgroundImageFix" result="effect1_dropShadow_1_2"/>
      <feBlend mode="normal" in="SourceGraphic" in2="effect1_dropShadow_1_2" result="shape"/>
    </filter>
  </defs>

  <g filter="url(#softShadow)">
    <path d="M379 268C406 156 528 92 640 108C638 236 548 336 425 352C401 337 387 303 379 268Z" fill="url(#leafA)"/>
    <path d="M372 296C334 191 218 132 102 154C120 280 214 365 337 372C354 356 365 327 372 296Z" fill="url(#leafB)"/>
    <path d="M385 358C492 302 620 346 676 440C569 510 418 495 350 398C355 380 368 366 385 358Z" fill="url(#leafA)"/>
    <path d="M356 387C266 320 132 334 62 418C154 512 297 541 384 478C386 448 374 412 356 387Z" fill="url(#leafB)"/>
    <path d="M366 188C365 308 360 432 353 560" stroke="#2D6E38" stroke-width="13" stroke-linecap="round"/>
    <path d="M400 600H320L294 760C344 781 414 781 466 760L440 600H400Z" fill="url(#pot)"/>
    <ellipse cx="380" cy="595" rx="105" ry="23" fill="#5A321E"/>
    <ellipse cx="380" cy="785" rx="120" ry="22" fill="#0C311D" fill-opacity="0.42"/>
  </g>
</svg>
